<svg width="175" height="58" viewBox="0 0 175 58" fill="none" xmlns="http://www.w3.org/2000/svg">
<path d="M13.318 44.2731C11.099 44.2731 9.15373 43.8841 7.48225 43.106C5.81076 42.3279 4.49951 41.2183 3.54849 39.7774C2.6263 38.3365 2.15079 36.6217 2.12197 34.6333H6.96351C6.99233 36.2471 7.5543 37.616 8.64941 38.7399C9.74452 39.8639 11.2863 40.4258 13.2748 40.4258C15.0328 40.4258 16.4016 40.0079 17.3815 39.1722C18.3901 38.3076 18.8945 37.2125 18.8945 35.8869C18.8945 34.8206 18.6495 33.956 18.1596 33.2932C17.6985 32.6304 17.0501 32.0828 16.2143 31.6505C15.4074 31.2182 14.4708 30.8292 13.4045 30.4834C12.3382 30.1375 11.2143 29.7629 10.0327 29.3594C7.69839 28.5813 5.94045 27.5727 4.75888 26.3335C3.60613 25.0943 3.02976 23.466 3.02976 21.4487C3.00094 19.7484 3.38999 18.2642 4.19692 16.9962C5.03266 15.7282 6.18541 14.7483 7.65516 14.0567C9.15373 13.3362 10.8973 12.976 12.8858 12.976C14.8454 12.976 16.5601 13.3362 18.0299 14.0567C19.5285 14.7772 20.6956 15.7858 21.5314 17.0827C22.3671 18.3507 22.7994 19.8348 22.8282 21.5352H17.9867C17.9867 20.757 17.7849 20.0222 17.3815 19.3305C16.978 18.6101 16.3872 18.0193 15.6091 17.5582C14.831 17.0971 13.88 16.8665 12.7561 16.8665C11.3151 16.8377 10.1192 17.1979 9.16814 17.9472C8.24594 18.6965 7.78485 19.734 7.78485 21.0596C7.78485 22.2412 8.13067 23.149 8.82232 23.783C9.51397 24.417 10.465 24.9502 11.6754 25.3824C12.8858 25.7859 14.2691 26.2614 15.8253 26.809C17.3238 27.2989 18.6639 27.8897 19.8455 28.5813C21.027 29.273 21.9637 30.1808 22.6553 31.3047C23.3758 32.4286 23.736 33.8552 23.736 35.5843C23.736 37.1117 23.347 38.5382 22.5688 39.8639C21.7907 41.1607 20.6236 42.227 19.0674 43.0627C17.5112 43.8697 15.5947 44.2731 13.318 44.2731Z" fill="#77BEFF"/>
<path d="M32.8956 44.0786C31.7285 44.0786 30.6694 43.8408 29.7184 43.3653C28.789 42.8682 28.0433 42.1874 27.4813 41.3228C26.9193 40.4582 26.6059 39.4748 26.5411 38.3725V33.7363C26.6059 32.6123 26.9193 31.6289 27.4813 30.786C28.0649 29.9214 28.8214 29.2514 29.7508 28.7759C30.7018 28.2787 31.7501 28.0302 32.8956 28.0302C34.3005 28.0302 35.565 28.3868 36.6889 29.1001C37.8344 29.8133 38.7314 30.7752 39.3798 31.9855C40.0283 33.1959 40.3525 34.5576 40.3525 36.0706C40.3525 37.5836 40.0283 38.9453 39.3798 40.1556C38.7314 41.366 37.8344 42.3279 36.6889 43.0411C35.565 43.7328 34.3005 44.0786 32.8956 44.0786ZM32.4093 41.3228C33.3819 41.3228 34.2357 41.0959 34.9706 40.642C35.7054 40.1881 36.289 39.5721 36.7213 38.794C37.1536 37.9942 37.3697 37.0756 37.3697 36.0382C37.3697 35.0223 37.1536 34.1145 36.7213 33.3148C36.289 32.5151 35.7054 31.8991 34.9706 31.4668C34.2357 31.0129 33.3927 30.786 32.4417 30.786C31.4691 30.786 30.6153 31.0129 29.8805 31.4668C29.1456 31.8991 28.5728 32.5151 28.1622 33.3148C27.7515 34.1145 27.5462 35.0331 27.5462 36.0706C27.5462 37.0864 27.7407 37.9942 28.1297 38.794C28.5404 39.5721 29.1132 40.1881 29.848 40.642C30.6045 41.0959 31.4583 41.3228 32.4093 41.3228ZM24.7904 50.2062V28.3544H27.7083V32.407L27.1571 36.1354L27.7083 39.8963V50.2062H24.7904ZM49.8204 44.0786C48.2858 44.0786 46.9025 43.7328 45.6705 43.0411C44.4385 42.3279 43.4659 41.366 42.7526 40.1556C42.0394 38.9453 41.6827 37.5728 41.6827 36.0382C41.6827 34.5252 42.0286 33.1635 42.7202 31.9531C43.4335 30.7427 44.3845 29.7917 45.5733 29.1001C46.7837 28.3868 48.1345 28.0302 49.6259 28.0302C51.0524 28.0302 52.306 28.3544 53.3867 29.0028C54.4891 29.6512 55.3428 30.5482 55.948 31.6937C56.5748 32.8393 56.8882 34.1361 56.8882 35.5843C56.8882 35.8004 56.8774 36.0382 56.8558 36.2975C56.8342 36.5353 56.791 36.8163 56.7261 37.1405H43.7253V34.7089H55.1699L54.1 35.6491C54.1 34.6116 53.9163 33.7363 53.5488 33.023C53.1814 32.2881 52.6627 31.7262 51.9926 31.3371C51.3226 30.9264 50.5121 30.7211 49.5611 30.7211C48.5668 30.7211 47.6914 30.9373 46.935 31.3695C46.1785 31.8018 45.5949 32.407 45.1842 33.1851C44.7735 33.9632 44.5682 34.8818 44.5682 35.9409C44.5682 37.0216 44.7844 37.9726 45.2166 38.794C45.6489 39.5937 46.2649 40.2205 47.0646 40.6744C47.8644 41.1067 48.783 41.3228 49.8204 41.3228C50.685 41.3228 51.4739 41.1715 52.1872 40.8689C52.922 40.5663 53.5488 40.1124 54.0676 39.5072L55.948 41.4201C55.2131 42.2846 54.3053 42.9439 53.2246 43.3977C52.1655 43.8516 51.0308 44.0786 49.8204 44.0786ZM65.6462 44.0786C64.2413 44.0786 62.9661 43.7328 61.8205 43.0411C60.675 42.3279 59.7672 41.366 59.0972 40.1556C58.4487 38.9453 58.1245 37.5836 58.1245 36.0706C58.1245 34.5576 58.4487 33.1959 59.0972 31.9855C59.7672 30.7752 60.6642 29.8133 61.7881 29.1001C62.9336 28.3868 64.2197 28.0302 65.6462 28.0302C66.8134 28.0302 67.8508 28.2787 68.7586 28.7759C69.688 29.2514 70.4337 29.9214 70.9957 30.786C71.5576 31.6289 71.871 32.6123 71.9359 33.7363V38.3725C71.871 39.4748 71.5576 40.4582 70.9957 41.3228C70.4553 42.1874 69.7205 42.8682 68.791 43.3653C67.8833 43.8408 66.835 44.0786 65.6462 44.0786ZM66.1325 41.3228C67.5807 41.3228 68.7478 40.8365 69.634 39.8639C70.5202 38.8696 70.9633 37.6052 70.9633 36.0706C70.9633 35.0115 70.7579 34.0929 70.3473 33.3148C69.9582 32.5151 69.3962 31.8991 68.6614 31.4668C67.9265 31.0129 67.0727 30.786 66.1001 30.786C65.1275 30.786 64.2629 31.0129 63.5064 31.4668C62.7715 31.9207 62.188 32.5475 61.7557 33.3472C61.345 34.1253 61.1397 35.0223 61.1397 36.0382C61.1397 37.0756 61.345 37.9942 61.7557 38.794C62.188 39.5721 62.7823 40.1881 63.5388 40.642C64.2953 41.0959 65.1599 41.3228 66.1325 41.3228ZM70.7687 43.7544V39.6045L71.3199 35.8436L70.7687 32.1152V28.3544H73.719V43.7544H70.7687ZM86.8506 43.7544L79.6531 35.8761L86.7857 28.3544H90.3196L82.3765 36.6542L82.5062 34.9683L90.6114 43.7544H86.8506ZM76.9946 43.7544V20.6057H79.9125V43.7544H76.9946ZM92.2448 43.7544V25.0042H94.7845V43.7544H92.2448ZM93.9739 43.7544V41.4309H104.024V43.7544H93.9739ZM133.966 43.7544V34.7737C133.966 33.6066 133.599 32.6448 132.864 31.8883C132.129 31.1318 131.178 30.7535 130.011 30.7535C129.233 30.7535 128.541 30.9264 127.936 31.2723C127.331 31.6181 126.855 32.0936 126.509 32.6988C126.164 33.304 125.991 33.9956 125.991 34.7737L124.791 34.0929C124.791 32.9257 125.05 31.8883 125.569 30.9805C126.088 30.0727 126.812 29.3594 127.741 28.8407C128.671 28.3003 129.719 28.0302 130.886 28.0302C132.053 28.0302 133.08 28.322 133.966 28.9055C134.874 29.4891 135.587 30.2564 136.106 31.2074C136.625 32.1368 136.884 33.1311 136.884 34.1902V43.7544H133.966ZM123.073 43.7544V28.3544H125.991V43.7544H123.073ZM146.249 50.5304C144.671 50.5304 143.266 50.2386 142.034 49.655C140.824 49.0714 139.851 48.2501 139.116 47.191L140.997 45.2782C141.624 46.0779 142.369 46.6831 143.234 47.0937C144.098 47.526 145.125 47.7422 146.314 47.7422C147.892 47.7422 149.135 47.3207 150.042 46.4777C150.972 45.6564 151.436 44.5433 151.436 43.1384V39.3127L151.955 35.8436L151.436 32.407V28.3544H154.354V43.1384C154.354 44.6081 154.008 45.8942 153.317 46.9965C152.647 48.0988 151.696 48.9634 150.464 49.5902C149.253 50.217 147.848 50.5304 146.249 50.5304ZM146.249 43.495C144.844 43.495 143.58 43.16 142.456 42.49C141.353 41.8199 140.478 40.9013 139.83 39.7342C139.181 38.5454 138.857 37.2161 138.857 35.7464C138.857 34.2766 139.181 32.969 139.83 31.8234C140.478 30.6563 141.353 29.7377 142.456 29.0676C143.58 28.376 144.844 28.0302 146.249 28.0302C147.459 28.0302 148.529 28.2679 149.459 28.7434C150.388 29.2189 151.123 29.889 151.663 30.7535C152.225 31.5965 152.528 32.5907 152.571 33.7363V37.8213C152.506 38.9453 152.193 39.9395 151.631 40.8041C151.091 41.647 150.356 42.3062 149.426 42.7817C148.497 43.2573 147.438 43.495 146.249 43.495ZM146.833 40.7392C147.784 40.7392 148.616 40.5339 149.329 40.1232C150.064 39.7126 150.626 39.1398 151.015 38.4049C151.404 37.6484 151.599 36.773 151.599 35.7788C151.599 34.7846 151.393 33.92 150.983 33.1851C150.593 32.4286 150.042 31.845 149.329 31.4344C148.616 31.0021 147.773 30.786 146.8 30.786C145.828 30.786 144.974 31.0021 144.239 31.4344C143.504 31.845 142.92 32.4286 142.488 33.1851C142.078 33.92 141.872 34.7737 141.872 35.7464C141.872 36.719 142.078 37.5836 142.488 38.3401C142.92 39.0966 143.504 39.6909 144.239 40.1232C144.995 40.5339 145.86 40.7392 146.833 40.7392ZM164.7 44.0786C163.187 44.0786 161.825 43.722 160.615 43.0087C159.404 42.2954 158.443 41.3336 157.729 40.1232C157.016 38.8912 156.659 37.5187 156.659 36.0057C156.659 34.5144 157.016 33.1743 157.729 31.9855C158.443 30.7752 159.404 29.8133 160.615 29.1001C161.825 28.3868 163.187 28.0302 164.7 28.0302C166.191 28.0302 167.542 28.3868 168.753 29.1001C169.985 29.7917 170.957 30.7427 171.67 31.9531C172.384 33.1635 172.74 34.5144 172.74 36.0057C172.74 37.5187 172.384 38.8912 171.67 40.1232C170.957 41.3336 169.985 42.2954 168.753 43.0087C167.542 43.722 166.191 44.0786 164.7 44.0786ZM164.7 41.258C165.673 41.258 166.537 41.031 167.294 40.5771C168.05 40.1232 168.644 39.5072 169.077 38.7291C169.509 37.9294 169.725 37.0216 169.725 36.0057C169.725 35.0115 169.498 34.1253 169.044 33.3472C168.612 32.5691 168.018 31.9639 167.261 31.5316C166.526 31.0777 165.673 30.8508 164.7 30.8508C163.727 30.8508 162.863 31.0777 162.106 31.5316C161.35 31.9639 160.755 32.5691 160.323 33.3472C159.891 34.1253 159.675 35.0115 159.675 36.0057C159.675 37.0216 159.891 37.9294 160.323 38.7291C160.755 39.5072 161.35 40.1232 162.106 40.5771C162.863 41.031 163.727 41.258 164.7 41.258Z" fill="#969696"/>
<mask id="mask0_1_547" style="mask-type:alpha" maskUnits="userSpaceOnUse" x="94" y="15" width="34" height="34">
<rect x="94.8246" y="15.614" width="32.4211" height="32.4211" fill="#D9D9D9"/>
</mask>
<g mask="url(#mask0_1_547)">
<path d="M110.922 34.8947C109.978 34.8947 109.179 34.5678 108.525 33.914C107.872 33.2602 107.545 32.4614 107.545 31.5175V23.4123C107.545 22.4684 107.872 21.6696 108.525 21.0158C109.179 20.362 109.978 20.0351 110.922 20.0351C111.866 20.0351 112.665 20.362 113.318 21.0158C113.972 21.6696 114.299 22.4684 114.299 23.4123V31.5175C114.299 32.4614 113.972 33.2602 113.318 33.914C112.665 34.5678 111.866 34.8947 110.922 34.8947ZM110.922 44.6885C110.634 44.6885 110.394 44.5916 110.2 44.3976C110.006 44.2036 109.909 43.9629 109.909 43.6754V40.241C107.867 40.0055 106.132 39.1733 104.703 37.7445C103.274 36.3157 102.441 34.5985 102.204 32.593C102.162 32.3055 102.242 32.0544 102.443 31.8396C102.644 31.6249 102.909 31.5175 103.238 31.5175C103.475 31.5175 103.687 31.6076 103.874 31.7877C104.061 31.9678 104.18 32.1878 104.23 32.4475C104.453 34.0928 105.197 35.4749 106.461 36.5937C107.726 37.7125 109.213 38.2719 110.922 38.2719C112.631 38.2719 114.118 37.7125 115.382 36.5937C116.647 35.4749 117.391 34.0928 117.614 32.4475C117.664 32.1878 117.784 31.9678 117.974 31.7877C118.163 31.6076 118.381 31.5175 118.627 31.5175C118.942 31.5175 119.2 31.6249 119.401 31.8396C119.602 32.0544 119.682 32.3055 119.64 32.593C119.403 34.5985 118.57 36.3157 117.141 37.7445C115.712 39.1733 113.977 40.0055 111.935 40.241V43.6754C111.935 43.9629 111.838 44.2036 111.644 44.3976C111.45 44.5916 111.209 44.6885 110.922 44.6885Z" fill="#FF717A"/>
</g>
</svg>
