<svg width="56" height="56" viewBox="0 0 56 56" fill="none" xmlns="http://www.w3.org/2000/svg">
<rect width="56" height="56" rx="28" fill="#356AFF"/>
<mask id="mask0_1_247" style="mask-type:alpha" maskUnits="userSpaceOnUse" x="10" y="10" width="35" height="36">
<rect x="10" y="10.5" width="35" height="35" fill="#D9D9D9"/>
</mask>
<g mask="url(#mask0_1_247)">
<path d="M27.5 30.9167C26.2847 30.9167 25.2517 30.4913 24.401 29.6406C23.5503 28.79 23.125 27.757 23.125 26.5417V17.7917C23.125 16.5764 23.5503 15.5434 24.401 14.6927C25.2517 13.842 26.2847 13.4167 27.5 13.4167C28.7153 13.4167 29.7482 13.842 30.5989 14.6927C31.4496 15.5434 31.875 16.5764 31.875 17.7917V26.5417C31.875 27.757 31.4496 28.79 30.5989 29.6406C29.7482 30.4913 28.7153 30.9167 27.5 30.9167ZM27.5 41.125C27.0868 41.125 26.7404 40.9853 26.4609 40.7057C26.1814 40.4262 26.0416 40.0799 26.0416 39.6667V36.6406C23.7812 36.3247 21.8611 35.3768 20.2812 33.7969C18.7014 32.217 17.7413 30.3212 17.401 28.1094C17.3281 27.6962 17.4375 27.3316 17.7292 27.0156C18.0208 26.6997 18.4097 26.5417 18.8958 26.5417C19.2361 26.5417 19.5399 26.6693 19.8073 26.9245C20.0746 27.1797 20.2448 27.4896 20.3177 27.8542C20.6337 29.5556 21.4601 30.9775 22.7969 32.1198C24.1337 33.2622 25.7014 33.8334 27.5 33.8334C29.2986 33.8334 30.8663 33.2622 32.2031 32.1198C33.5399 30.9775 34.3663 29.5556 34.6823 27.8542C34.7552 27.4896 34.9314 27.1797 35.2109 26.9245C35.4904 26.6693 35.8003 26.5417 36.1406 26.5417C36.6024 26.5417 36.9791 26.6997 37.2708 27.0156C37.5625 27.3316 37.6719 27.6962 37.5989 28.1094C37.2587 30.3212 36.2986 32.217 34.7187 33.7969C33.1389 35.3768 31.2187 36.3247 28.9583 36.6406V39.6667C28.9583 40.0799 28.8186 40.4262 28.539 40.7057C28.2595 40.9853 27.9132 41.125 27.5 41.125ZM27.5 28C27.9132 28 28.2595 27.8603 28.539 27.5808C28.8186 27.3012 28.9583 26.9549 28.9583 26.5417V17.7917C28.9583 17.3785 28.8186 17.0321 28.539 16.7526C28.2595 16.4731 27.9132 16.3334 27.5 16.3334C27.0868 16.3334 26.7404 16.4731 26.4609 16.7526C26.1814 17.0321 26.0416 17.3785 26.0416 17.7917V26.5417C26.0416 26.9549 26.1814 27.3012 26.4609 27.5808C26.7404 27.8603 27.0868 28 27.5 28Z" fill="white"/>
</g>
</svg>
