<svg width="56" height="56" viewBox="0 0 56 56" fill="none" xmlns="http://www.w3.org/2000/svg">
<rect width="56" height="56" rx="28" fill="#356AFF"/>
<mask id="mask0_1_249" style="mask-type:alpha" maskUnits="userSpaceOnUse" x="10" y="10" width="35" height="36">
<rect x="10" y="10.5" width="35" height="35" fill="#D9D9D9"/>
</mask>
<g mask="url(#mask0_1_249)">
<path d="M37.7083 27.9636C37.7083 25.9462 37.1736 24.1051 36.1042 22.4401C35.0347 20.7752 33.6007 19.5295 31.8021 18.7031C31.4375 18.533 31.1701 18.2717 31 17.9193C30.8299 17.5669 30.8056 17.2084 30.9271 16.8438C31.0729 16.4549 31.3342 16.1754 31.7109 16.0052C32.0877 15.8351 32.4705 15.8351 32.8594 16.0052C35.217 17.0504 37.1007 18.6485 38.5104 20.7995C39.9201 22.9505 40.625 25.3386 40.625 27.9636C40.625 30.5886 39.9201 32.9766 38.5104 35.1276C37.1007 37.2787 35.217 38.8768 32.8594 39.9219C32.4705 40.092 32.0877 40.092 31.7109 39.9219C31.3342 39.7518 31.0729 39.4722 30.9271 39.0834C30.8056 38.7188 30.8299 38.3603 31 38.0078C31.1701 37.6554 31.4375 37.3941 31.8021 37.224C33.6007 36.3976 35.0347 35.1519 36.1042 33.487C37.1736 31.8221 37.7083 29.9809 37.7083 27.9636ZM20.2083 32.375H15.8333C15.4201 32.375 15.0738 32.2353 14.7943 31.9558C14.5148 31.6762 14.375 31.3299 14.375 30.9167V25.0834C14.375 24.6702 14.5148 24.3238 14.7943 24.0443C15.0738 23.7648 15.4201 23.625 15.8333 23.625H20.2083L25.0208 18.8125C25.4826 18.3507 26.0113 18.2474 26.6068 18.5026C27.2023 18.7578 27.5 19.2136 27.5 19.8698V36.1302C27.5 36.7865 27.2023 37.2422 26.6068 37.4974C26.0113 37.7526 25.4826 37.6493 25.0208 37.1875L20.2083 32.375ZM34.0625 28C34.0625 29.0209 33.8316 29.987 33.3698 30.8985C32.908 31.8099 32.3003 32.5573 31.5469 33.1406C31.3038 33.2865 31.0547 33.2926 30.7995 33.1589C30.5443 33.0252 30.4167 32.8125 30.4167 32.5209V23.4063C30.4167 23.1146 30.5443 22.9019 30.7995 22.7682C31.0547 22.6346 31.3038 22.6406 31.5469 22.7865C32.3003 23.3941 32.908 24.1597 33.3698 25.0834C33.8316 26.007 34.0625 26.9792 34.0625 28ZM24.5833 23.4063L21.4479 26.5417H17.2917V29.4584H21.4479L24.5833 32.5938V23.4063Z" fill="white"/>
</g>
</svg>
